<svg xmlns="http://www.w3.org/2000/svg" width="461.2" height="461.2" viewBox="0 0 461.2 461.2">
  <path id="Icon_awesome-recycle" data-name="Icon awesome-recycle" d="M166.249,235.917c2.911,12.608-10.92,22.191-21.68,15.465l-36.694-22.929-45.82,73.325C50.089,320.924,63.919,345.9,86.486,345.9h46.83a10.81,10.81,0,0,1,10.809,10.809V392.74a10.81,10.81,0,0,1-10.809,10.809H86.578c-67.859,0-109.267-74.808-73.331-132.306l45.78-73.313L22.343,175.007c-10.882-6.8-8.076-23.385,4.395-26.265l99.3-22.925a14.412,14.412,0,0,1,17.285,10.8l22.927,99.3ZM255.031,71.151l37.192,59.52-36.7,22.931c-10.855,6.781-8.107,23.378,4.395,26.265l99.3,22.925a14.412,14.412,0,0,0,17.285-10.8l22.925-99.3c2.88-12.47-10.8-22.266-21.68-15.465l-36.65,22.9L303.931,40.6c-33.8-54.076-112.786-54.2-146.662,0L141.088,66.516a10.809,10.809,0,0,0,3.441,14.893L175.083,100.5a10.81,10.81,0,0,0,14.9-3.438l16.179-25.891C217.608,52.848,243.966,53.447,255.031,71.151ZM447.948,271.243,423.163,231.55a10.809,10.809,0,0,0-14.9-3.442l-30.5,19.06a10.81,10.81,0,0,0-3.439,14.9L399.154,301.8c11.942,19.106-1.853,44.1-24.444,44.1H288.25V302.68c0-12.8-15.531-19.261-24.6-10.19l-72.063,72.045a14.411,14.411,0,0,0,0,20.382l72.063,72.052c9.01,9.011,24.6,2.7,24.6-10.192V403.55h86.367C442.422,403.55,483.913,328.788,447.948,271.243Z"/>
</svg>
