<svg xmlns="http://www.w3.org/2000/svg" width="35.983" height="36" viewBox="0 0 35.983 36">
  <defs>
    <style>
      .cls-1 {
        fill: #602f78;
      }
    </style>
  </defs>
  <path id="Icon_simple-circle" data-name="Icon simple-circle" class="cls-1" d="M31.182,5.748c-.152-.157-.3-.319-.451-.476s-.316-.3-.48-.453A17.995,17.995,0,0,0,4.819,30.252c.148.162.3.321.45.48s.315.3.476.45A18,18,0,0,0,31.182,5.748ZM6.2,6.2a16.679,16.679,0,0,1,23.126-.452l-1.5,1.5A14.562,14.562,0,0,0,7.251,27.823l-1.5,1.5A16.706,16.706,0,0,1,6.2,6.2ZM26.9,8.177v0L25.374,9.7A11.1,11.1,0,0,0,9.7,25.369L8.178,26.893A13.252,13.252,0,0,1,26.9,8.177ZM27.806,18a9.792,9.792,0,0,1-16.249,7.375l0-.006c-.165-.141-.33-.282-.486-.437s-.3-.321-.439-.489A9.79,9.79,0,0,1,24.443,10.628c.167.144.336.285.489.443s.3.321.442.486A9.723,9.723,0,0,1,27.806,18ZM10.626,26.3h0A11.1,11.1,0,0,0,26.3,10.626l1.52-1.518A13.251,13.251,0,0,1,9.105,27.824L10.626,26.3ZM29.8,29.8a16.685,16.685,0,0,1-23.127.451l1.506-1.5A14.561,14.561,0,0,0,28.75,8.178l1.5-1.5A16.7,16.7,0,0,1,29.8,29.8Z" transform="translate(-0.009)"/>
</svg>
